<svg id="0f8de242-4f64-47eb-a711-3827d164fc11" data-name="a0d41dfe-7c1f-43b4-8126-207e360f014c" xmlns="http://www.w3.org/2000/svg" viewBox="0 0 115.5 95.76"><defs><style>.b0e9f124-4fe4-420e-aae6-e2ba374e7aa9{fill:#2080cd;}</style></defs><title>buy-home</title><path class="b0e9f124-4fe4-420e-aae6-e2ba374e7aa9" d="M150.52,123.13h7c2.54,0,3.84,1.62,3.84,3.4a3,3,0,0,1-2.3,3.06,3.22,3.22,0,0,1,2.56,3.28c0,2-1.34,3.6-3.88,3.6H150.5Zm6.4,5.36a1.47,1.47,0,1,0,0-2.94h-3.56v2.94Zm.1,5.56a1.53,1.53,0,0,0,1.71-1.33,2.09,2.09,0,0,0,0-.25,1.57,1.57,0,0,0-1.55-1.57h-3.83v3.14Z" transform="translate(-85.25 -50.12)"/><path class="b0e9f124-4fe4-420e-aae6-e2ba374e7aa9" d="M170.24,135.25a4.52,4.52,0,0,1-3.4,1.46,2.77,2.77,0,0,1-3.11-2.38,3.22,3.22,0,0,1,0-.62v-6.86h2.54v5.86a1.55,1.55,0,0,0,1.28,1.78,1.4,1.4,0,0,0,.5,0,2.84,2.84,0,0,0,2.2-1.1v-6.54h2.54v9.66h-2.54Z" transform="translate(-85.25 -50.12)"/><path class="b0e9f124-4fe4-420e-aae6-e2ba374e7aa9" d="M176.14,138.13a1.29,1.29,0,0,0,1.34-.7l.36-.82-3.92-9.8h2.72l2.52,6.72,2.52-6.72h2.74l-4.54,11.24a3.51,3.51,0,0,1-3.66,2.34,6.66,6.66,0,0,1-1.26-.14l.38-2.28A2.19,2.19,0,0,0,176.14,138.13Z" transform="translate(-85.25 -50.12)"/><path class="b0e9f124-4fe4-420e-aae6-e2ba374e7aa9" d="M185.49,115.36H148a15.33,15.33,0,0,0-15.25,15.23v0c0-.41,0-.81.06-1.21h-4.11V97.57h15.46l0,18.23a15.51,15.51,0,0,1,3.82-.52h1.67V94.86a2.71,2.71,0,0,0-2-2.6,2.53,2.53,0,0,0-.77-.12H125.94a2.53,2.53,0,0,0-.77.12,2.72,2.72,0,0,0-2,2.6v34.48H107.93V87.59l28.49-19.44,28.49,19.44v27.69h5.48v-24l1.44,1,5.24,3.58a2.76,2.76,0,0,0,3.82-.7l6.21-9a2.63,2.63,0,0,0,.44-2,2.71,2.71,0,0,0-1.14-1.75L141.08,51.53a8.42,8.42,0,0,0-9.33,0L86.43,82.46a2.75,2.75,0,0,0-1.14,1.75,2.72,2.72,0,0,0,.44,2l6.22,9a2.75,2.75,0,0,0,3.81.7L101,92.32l1.45-1v38H94.66a2.82,2.82,0,0,0-2.83,2.81V135h41.58A15.35,15.35,0,0,0,148,145.88h37.5a15.26,15.26,0,0,0,0-30.52ZM94.91,89.88l-2.07-3-1-1.49,43-29.39a3,3,0,0,1,1.56-.47A2.87,2.87,0,0,1,138,56l43,29.4-1,1.49-2.07,3-11.22-7.66L138,62.61a2.76,2.76,0,0,0-3.11,0L106.12,82.22Zm38,42.79.06.36Zm-.15-1.81q0,.51.06,1Q132.76,131.37,132.75,130.86Zm52.73,11H148a11.26,11.26,0,1,1,0-22.52h37.49a11.26,11.26,0,1,1,0,22.52Z" transform="translate(-85.25 -50.12)"/></svg>