<svg id="a4cd2205-b78f-49dd-a0bd-b5bb1cfb4f21" data-name="8bac0150-74c3-4d7d-acba-6e91a71dce19" xmlns="http://www.w3.org/2000/svg" viewBox="0 0 102.35 93.56"><defs><style>.\31 8c44ee3-5805-40a8-b804-2d46b0fd1ed3{fill:#2080cd;}</style></defs><title>construction</title><path class="18c44ee3-5805-40a8-b804-2d46b0fd1ed3" d="M166.11,138.41a1.74,1.74,0,0,0-.11-.18l-18.64-28.61c-1.86-2.8-.26-5.23.85-6.42,3.33-3.14,7.8-2.4,11-1.23,1,.36,3.93,1.44,5-.61s-1.06-3.64-2-4.34c-5.86-4.51-15.26-7-23-2.35l-9.68,5.8a3.52,3.52,0,0,0-1.42,3.58.83.83,0,0,1-.76.85.74.74,0,0,1-.36-.06,3.53,3.53,0,0,0-4-.41l-4.14,2.48a4.27,4.27,0,0,0-1.4,5.78l3.31,5.51a4.27,4.27,0,0,0,5.81,1.44l4.19-2.51a3.45,3.45,0,0,0,1.4-3.64.56.56,0,0,1,.32-.62l.12-.06a1.42,1.42,0,0,1,1.2-.16c1,.27,2.2,1.47,3.14,3.2l16.44,29.89A4.57,4.57,0,0,0,156.2,148h.22a4.78,4.78,0,0,0,1,.1,4.64,4.64,0,0,0,2.38-.66l4.69-2.82a4.55,4.55,0,0,0,1.6-6.23Zm-31.27-29.49a5.29,5.29,0,0,0-4.2.56,4.42,4.42,0,0,0-2.3,4.57l-3.78,2.27a.38.38,0,0,1-.48-.11l-3.31-5.52a.26.26,0,0,1,0-.24.34.34,0,0,1,.15-.2l3.79-2.27a4.4,4.4,0,0,0,5.15.11,5.25,5.25,0,0,0,.79-.54,4.06,4.06,0,0,0,1-1.3,3.69,3.69,0,0,0,.38-2.7L141.32,98c4.11-2.5,8.89-2.39,13.07-.92a12.06,12.06,0,0,0-8.8,3.29,8.77,8.77,0,0,0-2.24,10l-3.79,2.27A9.39,9.39,0,0,0,134.84,108.92Zm27.79,32.37a.57.57,0,0,1-.13.08l-4.72,2.83a.71.71,0,0,1-.49.1.82.82,0,0,1-.43-.37L141.51,116l3.86-2.31,17.35,26.68A.65.65,0,0,1,162.63,141.29Z" transform="translate(-90.82 -54.53)"/><path class="18c44ee3-5805-40a8-b804-2d46b0fd1ed3" d="M177.41,96.74l5.25,3.57a2.74,2.74,0,0,0,3.81-.7l6.22-9a2.67,2.67,0,0,0,.43-2A2.71,2.71,0,0,0,192,86.88L146.66,55.94a8.41,8.41,0,0,0-9.32,0L92,86.88a2.67,2.67,0,0,0-.71,3.74l6.22,9a2.74,2.74,0,0,0,3.81.7l5.25-3.57,1.44-1v38h-7.79a2.83,2.83,0,0,0-2.83,2.8v2.92h43.93l-3.81-5.72h-24V92L142,72.56,170.49,92v47.46h16.1v-2.92a2.83,2.83,0,0,0-2.83-2.8H176v-38Zm-5.12-10.1L143.56,67a2.78,2.78,0,0,0-3.12,0L111.71,86.64l-11.22,7.65-2.07-3-1-1.49,43.07-29.4a2.78,2.78,0,0,1,3.1,0l43.07,29.4-1,1.49-2.07,3Z" transform="translate(-90.82 -54.53)"/></svg>