<svg id="baf3b804-21e5-4908-bfe4-47d43b67c1b1" data-name="67b9b139-8021-4903-9a77-adc4709f9851" xmlns="http://www.w3.org/2000/svg" viewBox="0 0 134.5 95.76"><defs><style>.fda27585-a14b-4122-b738-6a678c20e5ac{fill:#2080cd;}</style></defs><title>HELOC</title><path class="fda27585-a14b-4122-b738-6a678c20e5ac" d="M154.09,131.53h-6.3v5.6H145V123.79h2.84V129h6.3v-5.24H157V137.1h-2.86Z" transform="translate(-85.25 -50.12)"/><path class="fda27585-a14b-4122-b738-6a678c20e5ac" d="M159.57,123.79H169v2.44h-6.6v2.9h6.46v2.44H162.4v3.1H169v2.46h-9.44Z" transform="translate(-85.25 -50.12)"/><path class="fda27585-a14b-4122-b738-6a678c20e5ac" d="M171.23,123.79h2.84v10.84h5.64v2.5h-8.48Z" transform="translate(-85.25 -50.12)"/><path class="fda27585-a14b-4122-b738-6a678c20e5ac" d="M187.47,123.57a6.91,6.91,0,1,1-7,6.9,6.7,6.7,0,0,1,6.49-6.9Zm0,2.52c-2.46,0-4,1.88-4,4.38s1.58,4.38,4,4.38a4.39,4.39,0,0,0,0-8.76Z" transform="translate(-85.25 -50.12)"/><path class="fda27585-a14b-4122-b738-6a678c20e5ac" d="M195.81,130.47a6.74,6.74,0,0,1,6.59-6.9h.41a6.16,6.16,0,0,1,5.68,3.26l-2.44,1.2a3.64,3.64,0,0,0-3.24-1.94,4.39,4.39,0,0,0,0,8.76,3.63,3.63,0,0,0,3.24-1.94l2.44,1.18a6.19,6.19,0,0,1-5.68,3.29,6.77,6.77,0,0,1-7-6.51Z" transform="translate(-85.25 -50.12)"/><path class="fda27585-a14b-4122-b738-6a678c20e5ac" d="M204.49,115.36H148a15.33,15.33,0,0,0-15.25,15.23v0c0-.41,0-.81.06-1.21h-4.11V97.57h15.46l0,18.23a15.51,15.51,0,0,1,3.82-.52h1.67V94.86a2.71,2.71,0,0,0-2-2.6,2.53,2.53,0,0,0-.77-.12H125.94a2.53,2.53,0,0,0-.77.12,2.72,2.72,0,0,0-2,2.6v34.48H107.93V87.59l28.49-19.44,28.49,19.44v27.69h5.48v-24l1.44,1,5.24,3.58a2.76,2.76,0,0,0,3.82-.7l6.21-9a2.63,2.63,0,0,0,.44-2,2.71,2.71,0,0,0-1.14-1.75L141.08,51.53a8.42,8.42,0,0,0-9.33,0L86.43,82.46a2.75,2.75,0,0,0-1.14,1.75,2.72,2.72,0,0,0,.44,2l6.22,9a2.75,2.75,0,0,0,3.81.7L101,92.32l1.45-1v38H94.66a2.82,2.82,0,0,0-2.83,2.81V135h41.58A15.35,15.35,0,0,0,148,145.88h56.5a15.26,15.26,0,0,0,0-30.52ZM94.91,89.88l-2.07-3-1-1.49,43-29.39a3,3,0,0,1,1.56-.47A2.87,2.87,0,0,1,138,56l43,29.4-1,1.49-2.07,3-11.22-7.66L138,62.61a2.76,2.76,0,0,0-3.11,0L106.12,82.22Zm38,42.79.06.36Zm-.15-1.81q0,.51.06,1Q132.76,131.37,132.75,130.86Zm71.73,11H148a11.26,11.26,0,1,1,0-22.52h56.49a11.26,11.26,0,1,1,0,22.52Z" transform="translate(-85.25 -50.12)"/></svg>