<svg id="15e3f371-d978-4a3c-abd2-cacf7aacb3dc" data-name="2420f479-e1eb-4e94-8a07-9e9063905b99" xmlns="http://www.w3.org/2000/svg" viewBox="0 0 115.5 95.76"><defs><style>.f222baba-9b54-4ee3-93ff-99dde0369d0e{fill:#2080cd;}</style></defs><title>refi-home</title><path class="f222baba-9b54-4ee3-93ff-99dde0369d0e" d="M155.53,131.74h-2.08v4.78h-2.84V123.18h6.24a4.15,4.15,0,0,1,4.48,4.3,3.82,3.82,0,0,1-2.92,4l3,5.08h-3.26Zm.9-6.12h-3v3.68h3a1.85,1.85,0,0,0,.38-3.68A2.41,2.41,0,0,0,156.43,125.62Z" transform="translate(-85.25 -50.12)"/><path class="f222baba-9b54-4ee3-93ff-99dde0369d0e" d="M167.19,126.62c2.88,0,4.84,2.16,4.84,5.32v.56h-7.18a2.6,2.6,0,0,0,2.78,2.24,4,4,0,0,0,2.58-1l1.12,1.64a6,6,0,0,1-4,1.34,5.07,5.07,0,1,1-.16-10.14Zm-2.38,4.16h4.76a2.23,2.23,0,0,0-2.33-2.14h-.05A2.32,2.32,0,0,0,164.81,130.78Z" transform="translate(-85.25 -50.12)"/><path class="f222baba-9b54-4ee3-93ff-99dde0369d0e" d="M174.43,129.08h-1.6v-2.22h1.6v-.52a3.11,3.11,0,0,1,2.85-3.35,1.86,1.86,0,0,1,.41,0,4.15,4.15,0,0,1,1.84.4l-.52,1.84a1.41,1.41,0,0,0-.82-.24c-.72,0-1.2.48-1.2,1.36v.52h2v2.22h-2v7.44h-2.56Zm5.72-5.16a1.52,1.52,0,1,1,1.52,1.52A1.52,1.52,0,0,1,180.15,123.92Zm.26,2.94H183v9.66h-2.54Z" transform="translate(-85.25 -50.12)"/><path class="f222baba-9b54-4ee3-93ff-99dde0369d0e" d="M185.49,115.36H148a15.33,15.33,0,0,0-15.25,15.23v0c0-.41,0-.81.06-1.21h-4.11V97.57h15.46l0,18.23a15.51,15.51,0,0,1,3.82-.52h1.67V94.86a2.71,2.71,0,0,0-2-2.6,2.53,2.53,0,0,0-.77-.12H125.94a2.53,2.53,0,0,0-.77.12,2.72,2.72,0,0,0-2,2.6v34.48H107.93V87.59l28.49-19.44,28.49,19.44v27.69h5.48v-24l1.44,1,5.24,3.58a2.76,2.76,0,0,0,3.82-.7l6.21-9a2.63,2.63,0,0,0,.44-2,2.71,2.71,0,0,0-1.14-1.75L141.08,51.53a8.42,8.42,0,0,0-9.33,0L86.43,82.46a2.75,2.75,0,0,0-1.14,1.75,2.72,2.72,0,0,0,.44,2l6.22,9a2.75,2.75,0,0,0,3.81.7L101,92.32l1.45-1v38H94.66a2.82,2.82,0,0,0-2.83,2.81V135h41.58A15.35,15.35,0,0,0,148,145.88h37.5a15.26,15.26,0,0,0,0-30.52ZM94.91,89.88l-2.07-3-1-1.49,43-29.39a3,3,0,0,1,1.56-.47A2.87,2.87,0,0,1,138,56l43,29.4-1,1.49-2.07,3-11.22-7.66L138,62.61a2.76,2.76,0,0,0-3.11,0L106.12,82.22Zm38,42.79.06.36Zm-.15-1.81q0,.51.06,1Q132.76,131.37,132.75,130.86Zm52.73,11H148a11.26,11.26,0,1,1,0-22.52h37.49a11.26,11.26,0,1,1,0,22.52Z" transform="translate(-85.25 -50.12)"/></svg>